#N canvas -1 26 1920 984 12;
#X obj -4 -8 cnv 15 10000 6000 empty empty empty 20 12 0 14 #7c7c7c
#404040 0;
#X obj 146 162 osc~;
#X obj 86 63 osc~;
#X obj 145 112 +~;
#X obj 240 60 hsl 128 15 200 1000 0 0 empty empty empty -2 -8 0 10
#fcfcfc #000000 #000000 0 1;
#X obj 145 266 *~;
#X obj 204 199 hsl 128 15 0 1 0 0 empty empty empty -2 -8 0 10 #fcfcfc
#000000 #000000 0 1;
#X obj 89 11 hsl 128 15 0 1000 0 0 empty empty empty -2 -8 0 10 #fcfcfc
#000000 #000000 0 1;
#X obj 146 332 dac~;
#X obj 21 226 tabwrite~ fm;
#X obj 21 153 tgl 15 0 empty empty empty 17 7 0 10 #fcfcfc #000000
#000000 0 1;
#N canvas 0 50 450 250 (subpatch) 0;
#X array fm 100 float 3;
#A 0 0 0 0 0 0 0 0 0 0 0 0 0 0 0 0 0 0 0 0 0 0 0 0 0 0 0 0 0 0 0 0
0 0 0 0 0 0 0 0 0 0 0 0 0 0 0 0 0 0 0 0 0 0 0 0 0 0 0 0 0 0 0 0 0 0
0 0 0 0 0 0 0 0 0 0 0 0 0 0 0 0 0 0 0 0 0 0 0 0 0 0 0 0 0 0 0 0 0 0
0;
#X coords 0 1 100 -1 200 140 1;
#X restore 538 205 graph;
#X obj 21 186 metro 10;
#X connect 1 0 5 0;
#X connect 2 0 3 0;
#X connect 3 0 1 0;
#X connect 4 0 3 1;
#X connect 5 0 8 0;
#X connect 5 0 8 1;
#X connect 5 0 9 0;
#X connect 6 0 5 1;
#X connect 7 0 2 0;
#X connect 10 0 12 0;
#X connect 12 0 9 0;
