#N canvas -1 26 1920 984 12;
#X obj -9 -79 cnv 15 10000 6000 empty empty empty 20 12 0 14 #606060
#404040 0;
#X obj 236 232 phasor~ 100;
#X obj 236 266 expr~ $v1 > 0.5;
#X obj 275 474 vline~;
#X msg 275 424 0.5 \, 1.5 \, 0.5 60 5 \, 0 \$1 65;
#X obj 275 380 f;
#X floatatom 293 349 5 0 0 0 - - - 0;
#X obj 275 324 r kick;
#X obj 83 -52 tgl 15 0 empty empty empty 17 7 0 10 #fcfcfc #000000
#000000 0 1;
#X floatatom 115 -54 5 0 0 0 - - - 0;
#X obj 83 -12 metro;
#X obj 83 30 s kick;
#X obj 237 508 *~;
#X obj 236 17 vline~;
#X msg 236 -19 1 \, 0.5 5 \, 0 \$1 5;
#X obj 236 71 *~;
#X obj 236 166 mtof~;
#X obj 236 -55 r kick;
#X obj 236 106 *~ 80;
#X obj 236 137 +~ 29;
#X obj 373 572 vsl 15 128 0 1 0 0 empty empty volume 0 -9 0 10 #040070
#000000 #000000 0 1;
#X obj 290 723 *~;
#X obj 277 777 dac~;
#X obj 255 197 s~ pitch_env;
#X obj 262 545 r~ pitch_env;
#X obj 236 659 vcf~ 0.5;
#X obj 262 610 *~ 1;
#X floatatom 287 575 5 0 0 0 - - - 0;
#X obj 254 293 noise~;
#X obj 236 342 +~;
#X msg 83 91 \; volume 0.5 \;;
#X connect 1 0 2 0;
#X connect 2 0 29 0;
#X connect 3 0 12 1;
#X connect 4 0 3 0;
#X connect 5 0 4 0;
#X connect 6 0 5 1;
#X connect 7 0 5 0;
#X connect 8 0 10 0;
#X connect 9 0 10 1;
#X connect 10 0 11 0;
#X connect 12 0 25 0;
#X connect 13 0 15 0;
#X connect 13 0 15 1;
#X connect 14 0 13 0;
#X connect 15 0 18 0;
#X connect 16 0 1 0;
#X connect 16 0 23 0;
#X connect 17 0 14 0;
#X connect 18 0 19 0;
#X connect 19 0 16 0;
#X connect 20 0 21 1;
#X connect 21 0 22 0;
#X connect 21 0 22 1;
#X connect 24 0 26 0;
#X connect 25 1 21 0;
#X connect 26 0 25 1;
#X connect 27 0 26 1;
#X connect 28 0 29 1;
#X connect 29 0 12 0;
